<svg id="Layer_1" data-name="Layer 1" xmlns="http://www.w3.org/2000/svg" viewBox="0 0 561.55 336.52"><defs><style>.cls-1{fill:#fff;}.cls-2{fill:#00c;}.cls-3{fill:#1fe028;}</style></defs><title>DigiScripts_Logo_White</title><path class="cls-1" d="M519.87,219.85l-0.34.23-0.6.48q-2.31,1.76-4.61,3.62l-9,7.31-4.6,3.69-7.65-19.75c-3.75-8.91-11.24-17.81-11.24-17.81v-1.41c53.9-11.71,86.7-58.59,86.7-107.8,0-35.15-16.4-58.12-38.9-69.84-16.4-8.44-37.5-10.31-59.05-10.31H334.75l-6.5,35.91c1.44,0.4,2.88.86,4.34,1.37l1,0.36a21.94,21.94,0,0,1,5.69,3c7.94,5.27,13.12,14.28,13.12,26.35a31.74,31.74,0,0,1-.41,4.85h0l-0.19,1c-0.06.32-.12,0.64-0.19,1l-17.91,91.65-1,4.92L313.16,279.22h0a28.89,28.89,0,0,1-12.23,18.36,21.8,21.8,0,0,1-5.66,3l-1,.36a67.53,67.53,0,0,1-13,3.22l-6.34,35H309v0c28.17-.74,40-5,46.73-36.51l19.21-97h41.72c15.94,0,23.9,3.28,29.53,18.75l15.67,42.06-12.66,10.18L439,284.83l-19.47,15.65-2.63,2.12-7,36.58H434L476.55,305c8.54,19.51,20.93,35.14,53.57,35.14,3.09,0,7-.09,10.72-0.23l7-36.37c-0.78,0-1.54,0-2.26,0-17.35,0-21.56-8.44-26.72-21.56l-3.15-8.13,29-23c0.83-.65,1.63-1.27,2.43-1.88,4.25-2.73,8.37-4.41,13.12-4.28l0.59-3h0l6.64-34.51C548.12,202.07,533.66,209.48,519.87,219.85Zm-72.72-52.68H382L405.45,46.71h55.31c16.87,0,32.34,2.34,42.18,8.91,11.24,7,17.81,19.68,17.81,38.9C520.75,138.1,486.06,167.16,447.16,167.16Z" transform="translate(-7 -8.28)"/><path class="cls-1" d="M249.11,301.6l0,0a31.59,31.59,0,0,1-21.43-38.5l16.81-87,1-4.92L264.59,72l0.19,0a31.68,31.68,0,0,1,22.45-27.08l0,0a59,59,0,0,1,10.1-2.37l6.15-34.24H273.18c-27.68-.3-42.27,5.89-48.66,35.25L222.84,52,210,119.83a120.64,120.64,0,0,0-2.35,17.35h-0.93c-10.79-28.59-39.38-40.78-68.9-40.78C69.34,96.39,7,157.79,7,247.78c0,59.06,31.88,97,89.06,97,35.62,0,67.49-22,83.42-47.34h0.94c-0.86,29.14,16.7,39.85,42.63,41.47,1.35,0.08,2.72.15,4.11,0.19v0h16.92l6.65-37.06C249.69,301.81,249.11,301.6,249.11,301.6Zm-142.27,3.83c-33.28,0-53.44-23-53.44-60.93,0-68,46.41-108.27,87.18-108.27,37,0,53,27.19,53,60C193.55,250.6,156.52,305.43,106.84,305.43Z" transform="translate(-7 -8.28)"/><path class="cls-2" d="M342,81.71c0-10.26-4.13-17.92-10.46-22.4A17.15,17.15,0,0,0,327,56.78l-0.82-.31A54.74,54.74,0,0,0,290,55.9l0,0c-9.63,3.05-16.84,12.06-17.89,23H272L255,169.81,325.46,172l15.93-84.51c0.06-.27.1-0.54,0.15-0.82l0.15-.81h0A28.74,28.74,0,0,0,342,81.71Z" transform="translate(-7 -8.28)"/><path class="cls-3" d="M237.89,257.85a28.69,28.69,0,0,0-.87,6.93c0,12.2,7.57,22.49,18,25.79l0,0a54.22,54.22,0,0,0,36-.57l0.82-.31a17,17,0,0,0,4.51-2.54,24.67,24.67,0,0,0,9.74-15.6h0l17.32-92.12-19.86-.61-50.56-1.51Z" transform="translate(-7 -8.28)"/></svg>