<svg id="Layer_1" data-name="Layer 1" xmlns="http://www.w3.org/2000/svg" viewBox="0 0 561.55 440.23"><defs><style>.cls-1{fill:#00c;}.cls-2{fill:#1fe028;}</style></defs><title>DigiScripts_Logo</title><path d="M519.87,219.85l-0.34.23-0.6.48q-2.31,1.76-4.61,3.62l-9,7.31-4.6,3.69-7.65-19.75c-3.75-8.91-11.24-17.81-11.24-17.81v-1.41c53.9-11.71,86.7-58.59,86.7-107.8,0-35.15-16.4-58.12-38.9-69.84-16.4-8.44-37.5-10.31-59.05-10.31H334.75l-6.5,35.91c1.44,0.4,2.88.86,4.34,1.37l1,0.36a21.94,21.94,0,0,1,5.69,3c7.94,5.27,13.12,14.28,13.12,26.35a31.74,31.74,0,0,1-.41,4.85h0l-0.19,1c-0.06.32-.12,0.64-0.19,1l-17.91,91.65-1,4.92L313.16,279.22h0a28.89,28.89,0,0,1-12.23,18.36,21.8,21.8,0,0,1-5.66,3l-1,.36a67.53,67.53,0,0,1-13,3.22l-6.34,35H309v0c28.17-.74,40-5,46.73-36.51l19.21-97h41.72c15.94,0,23.9,3.28,29.53,18.75l15.67,42.06-12.66,10.18L439,284.83l-19.47,15.65-2.63,2.12-7,36.58H434L476.55,305c8.54,19.51,20.93,35.14,53.57,35.14,3.09,0,7-.09,10.72-0.23l7-36.37c-0.78,0-1.54,0-2.26,0-17.35,0-21.56-8.44-26.72-21.56l-3.15-8.13,29-23c0.83-.65,1.63-1.27,2.43-1.88,4.25-2.73,8.37-4.41,13.12-4.28l0.59-3h0l6.64-34.51C548.12,202.07,533.66,209.48,519.87,219.85Zm-72.72-52.68H382L405.45,46.71h55.31c16.87,0,32.34,2.34,42.18,8.91,11.24,7,17.81,19.68,17.81,38.9C520.75,138.1,486.06,167.16,447.16,167.16Z" transform="translate(-7 -8.28)"/><path d="M249.11,301.6l0,0a31.59,31.59,0,0,1-21.43-38.5l16.81-87,1-4.92L264.59,72l0.19,0a31.68,31.68,0,0,1,22.45-27.08l0,0a59,59,0,0,1,10.1-2.37l6.15-34.24H273.18c-27.68-.3-42.27,5.89-48.66,35.25L222.84,52,210,119.83a120.64,120.64,0,0,0-2.35,17.35h-0.93c-10.79-28.59-39.38-40.78-68.9-40.78C69.34,96.39,7,157.79,7,247.78c0,59.06,31.88,97,89.06,97,35.62,0,67.49-22,83.42-47.34h0.94c-0.86,29.14,16.7,39.85,42.63,41.47,1.35,0.08,2.72.15,4.11,0.19v0h16.92l6.65-37.06C249.69,301.81,249.11,301.6,249.11,301.6Zm-142.27,3.83c-33.28,0-53.44-23-53.44-60.93,0-68,46.41-108.27,87.18-108.27,37,0,53,27.19,53,60C193.55,250.6,156.52,305.43,106.84,305.43Z" transform="translate(-7 -8.28)"/><path class="cls-1" d="M342,81.71c0-10.26-4.13-17.92-10.46-22.4A17.15,17.15,0,0,0,327,56.78l-0.82-.31A54.74,54.74,0,0,0,290,55.9l0,0c-9.63,3.05-16.84,12.06-17.89,23H272L255,169.81,325.46,172l15.93-84.51c0.06-.27.1-0.54,0.15-0.82l0.15-.81h0A28.74,28.74,0,0,0,342,81.71Z" transform="translate(-7 -8.28)"/><path class="cls-2" d="M237.89,257.85a28.69,28.69,0,0,0-.87,6.93c0,12.2,7.57,22.49,18,25.79l0,0a54.22,54.22,0,0,0,36-.57l0.82-.31a17,17,0,0,0,4.51-2.54,24.67,24.67,0,0,0,9.74-15.6h0l17.32-92.12-19.86-.61-50.56-1.51Z" transform="translate(-7 -8.28)"/><path d="M35.68,385c6.81,0,10.44,1.18,13.43,3.9,3.9,3.72,6.26,10.8,6.26,27.86S53,440.88,49.12,444.6c-3,2.72-6.63,3.9-13.43,3.9H7V385H35.68Zm8.08,8.44c-1.91-1.82-3.72-2.27-8.08-2.27H14.17v51.19H35.68c4.36,0,6.26-.45,8.08-2.27,2.54-2.36,4.36-7.44,4.36-23.23C48.12,400.86,46.3,395.78,43.76,393.42Z" transform="translate(-7 -8.28)"/><path d="M73,448.51V385h7.17v63.53H73Z" transform="translate(-7 -8.28)"/><path d="M131.26,385c5.72,0,8,.73,10,2.54,3.27,3.09,4.36,6.72,4.63,16.7h-7c-0.27-7.53-1-10.26-2.54-11.71-0.91-.91-1.91-1.36-5.72-1.36H113c-3.81,0-4.9.54-5.81,1.36-1.45,1.45-2.81,4.72-2.81,24.23s1.36,22.78,2.81,24.23c0.91,0.82,2,1.36,5.81,1.36h17.61c3.81,0.09,4.81-.54,5.72-1.36,1.45-1.45,2.72-4.27,2.72-16.43v-2H121.82v-6.17h24.41v5.08c0,17.06-1.73,21.42-5,24.51-2,1.82-4.27,2.54-10,2.54h-19c-5.72,0-8-.73-10-2.54-3.27-3.09-5.17-7.71-5.17-29.22S99,390.6,102.3,387.52c2-1.81,4.27-2.54,10.07-2.54h18.88Z" transform="translate(-7 -8.28)"/><path d="M164.57,448.51V385h7.17v63.53h-7.17Z" transform="translate(-7 -8.28)"/><path d="M232.82,445.69c-1.82,1.81-4.45,2.81-9.26,2.81H201.87c-4.72,0-7.35-.64-9.26-2.63-2.45-2.45-3.36-5-3.45-16.52h7c0.18,8.89.64,10.53,1.73,11.62,0.91,0.91,2.09,1.36,5.08,1.36h19.51c3,0,4.26-.36,5.26-1.45,1.18-1.18,1.72-3.72,1.72-9.8,0-5.9-.27-7.53-1.63-8.89-1-.91-2.18-1.36-5.63-1.63l-19.88-1.82c-5-.45-7.62-1.45-9.35-3.18-2.27-2.27-3-5.17-3-13.34,0-7.81.91-11.71,3.72-14.43,1.72-1.81,4.45-2.81,9.17-2.81h19.7c4.72,0,7.44.64,9.35,2.63,2.54,2.54,3.27,5.17,3.45,16.06h-7.08c-0.09-8.17-.55-10-1.63-11.16-1-.91-2.18-1.36-5.08-1.36H204c-3,0-4.18.36-5.26,1.45-1.18,1.27-1.63,4.08-1.63,9.53,0,5.72.36,7.26,1.63,8.53,1,1,2.18,1.27,5.63,1.54L224.19,414c4.81,0.45,7.53,1.45,9.26,3.18,2.27,2.27,3.09,5.36,3.09,13.8S235.54,443.06,232.82,445.69Z" transform="translate(-7 -8.28)"/><path d="M297.53,446c-2,1.82-4.27,2.54-10,2.54H268.76c-5.72,0-8-.73-10-2.54-3.27-3.09-5.26-7.71-5.26-29.22s2-26.14,5.26-29.22c2-1.81,4.27-2.54,10-2.54h18.79c5.72,0,8,.73,10,2.54,3,2.81,4.45,6.53,4.72,17.24h-7.08c-0.27-8.62-1.27-11-2.54-12.25-0.91-.82-2-1.36-5.81-1.36H269.48c-3.81,0-4.9.54-5.81,1.36-1.45,1.45-2.9,4.72-2.9,24.23s1.45,22.78,2.9,24.23c0.91,0.82,2,1.36,5.81,1.36h17.34c3.81,0.09,4.9-.54,5.81-1.36,1.27-1.27,2.27-3.45,2.63-13.25h7.08C301.89,439.79,300.52,443.15,297.53,446Z" transform="translate(-7 -8.28)"/><path d="M353.44,422.64c-1.36-1.27-3.27-1.72-7.08-1.72H325.12v27.59H318V385h32.13c4.45,0,7.35.73,9.35,2.63,2.45,2.45,2.45,5.85,4,15,2.26,13.39-1.68,15.66-9.44,15.52v0.09c6.26,1.45,8.53,3.27,9,13.43,0.27,7.44.55,13.07,1,16.88h-7.08a150.94,150.94,0,0,1-1.18-16.7C355.53,425.45,354.8,423.82,353.44,422.64Zm-5.26-7.71c3.27,0,4.63-.63,5.54-1.54,1.09-1.09,2.54-3.27,2.54-10.44s-1.36-9.44-2.45-10.53c-0.91-.91-2.45-1.27-5.45-1.27H325.12v23.78h23.05Z" transform="translate(-7 -8.28)"/><path d="M382.57,448.51V385h7.17v63.53h-7.17Z" transform="translate(-7 -8.28)"/><path d="M447.47,420.73c-2,2-5,2.54-9.71,2.54H414.7v25.23h-7.17V385h30.22c4.72,0,7.72.54,9.71,2.54,2.63,2.45,4.63,6,4.63,16.79C452.1,414.75,450.1,418.28,447.47,420.73Zm-11.25-3.63c3.45,0,5-.36,6.08-1.36s2.54-3.36,2.54-11.62-1.36-10.53-2.54-11.62-2.63-1.36-6.08-1.36H414.7v26h21.51Z" transform="translate(-7 -8.28)"/><path d="M490.22,391.15v57.36H483V391.15H462.35V385h48.56v6.17H490.22Z" transform="translate(-7 -8.28)"/><path d="M564.82,445.69c-1.81,1.81-4.45,2.81-9.26,2.81H533.87c-4.72,0-7.35-.64-9.26-2.63-2.45-2.45-3.36-5-3.45-16.52h7c0.18,8.89.63,10.53,1.72,11.62,0.91,0.91,2.09,1.36,5.08,1.36h19.51c3,0,4.27-.36,5.26-1.45,1.18-1.18,1.72-3.72,1.72-9.8,0-5.9-.27-7.53-1.63-8.89-1-.91-2.18-1.36-5.63-1.63l-19.88-1.82c-5-.45-7.62-1.45-9.35-3.18-2.27-2.27-3-5.17-3-13.34,0-7.81.91-11.71,3.72-14.43,1.72-1.81,4.45-2.81,9.17-2.81h19.69c4.72,0,7.44.64,9.35,2.63,2.54,2.54,3.27,5.17,3.45,16.06h-7.08c-0.09-8.17-.54-10-1.63-11.16-1-.91-2.18-1.36-5.08-1.36H536c-3,0-4.17.36-5.26,1.45-1.18,1.27-1.63,4.08-1.63,9.53,0,5.72.36,7.26,1.63,8.53,1,1,2.18,1.27,5.63,1.54L556.2,414c4.81,0.45,7.53,1.45,9.26,3.18,2.27,2.27,3.09,5.36,3.09,13.8S567.55,443.06,564.82,445.69Z" transform="translate(-7 -8.28)"/></svg>